<svg width="512" height="512" viewBox="0 0 512 512" fill="none" xmlns="http://www.w3.org/2000/svg">
    <rect width="512" height="512" rx="112" fill="#007AFF"/>
    <g filter="url(#shadow)">
        <path d="M144 140H344C355.046 140 364 148.954 364 160V372C364 383.046 355.046 392 344 392H144C132.954 392 124 383.046 124 372V160C124 148.954 132.954 140 144 140Z" fill="white"/>
    </g>
    <path d="M364 160V204L324 180L284 220L244 192L204 232V160H364Z" fill="#D1E7FF"/>
    <path d="M124 160C124 148.954 132.954 140 144 140H344C355.046 140 364 148.954 364 160V240H124V160Z" fill="#F0F8FF"/>
    <path d="M364 160L324 200V160H364Z" fill="#007AFF" fill-opacity="0.2"/>
    <path d="M324 160H364L324 200V160Z" fill="url(#peel-gradient)"/>
    <path d="M324 200L364 160" stroke="rgba(0,0,0,0.1)" stroke-width="1"/>

    <circle cx="280" cy="194" r="16" fill="#FFD60A"/>
    <path d="M180 280L220 240L260 280" stroke="#007AFF" stroke-width="16" stroke-linecap="round" stroke-linejoin="round"/>
    <path d="M240 280L280 240L320 280" stroke="#007AFF" stroke-width="16" stroke-linecap="round" stroke-linejoin="round"/>
    <rect x="160" y="310" width="192" height="16" rx="8" fill="#E5E5EA"/>
    <rect x="160" y="340" width="128" height="16" rx="8" fill="#E5E5EA"/>

    <defs>
        <linearGradient id="peel-gradient" x1="364" y1="160" x2="324" y2="200" gradientUnits="userSpaceOnUse">
            <stop stop-color="white" stop-opacity="0.2"/>
            <stop offset="1" stop-color="black" stop-opacity="0.2"/>
        </linearGradient>
        <filter id="shadow" x="108" y="128" width="272" height="288" filterUnits="userSpaceOnUse" color-interpolation-filters="sRGB">
            <feFlood flood-opacity="0" result="BackgroundImageFix"/>
            <feColorMatrix in="SourceAlpha" type="matrix" values="0 0 0 0 0 0 0 0 0 0 0 0 0 0 0 0 0 0 127 0" result="hardAlpha"/>
            <feOffset dy="8"/>
            <feGaussianBlur stdDeviation="8"/>
            <feComposite in2="hardAlpha" operator="out"/>
            <feColorMatrix type="matrix" values="0 0 0 0 0.00196078 0 0 0 0 0.480392 0 0 0 0 1 0 0 0 0.2 0"/>
            <feBlend mode="normal" in2="BackgroundImageFix" result="effect1_dropShadow"/>
            <feBlend mode="normal" in="SourceGraphic" in2="effect1_dropShadow" result="shape"/>
        </filter>
    </defs>
</svg>